<?xml version="1.0" encoding="utf-8"?>
<!-- Generator: Adobe Illustrator 24.1.1, SVG Export Plug-In . SVG Version: 6.00 Build 0)  -->
<svg version="1.1" id="Layer_1" xmlns="http://www.w3.org/2000/svg" xmlns:xlink="http://www.w3.org/1999/xlink" x="0px" y="0px"
	 viewBox="0 0 308.63 511.92" style="enable-background:new 0 0 308.63 511.92;" xml:space="preserve">
<style type="text/css">
	.st0{fill:#FFFFFF;}
</style>
<g>
	<path d="M273.53,0.51c11.06,2.8,20.72,7.97,25.47,18.81c2.46,5.62,4.1,12.11,4.11,18.21c0.22,145.7,0.21,291.39,0.14,437.09
		c-0.01,22.49-14.81,36.89-37.47,36.9c-74.03,0.02-148.05,0.02-222.08,0c-22.85-0.01-37.46-14.52-37.49-37.4
		C6.16,411.24,6.2,348.37,6.2,285.51c0-82.33,0.02-164.66-0.01-246.99c-0.01-15.43,5.8-27.45,19.98-34.55
		c3.07-1.54,6.52-2.33,9.79-3.46C115.14,0.51,194.34,0.51,273.53,0.51z M278.98,55.72c-82.99,0-165.69,0-248.48,0
		c0,130.74,0,261.07,0,391.53c82.99,0,165.7,0,248.48,0C278.98,316.53,278.98,186.2,278.98,55.72z M137.63,476.81
		c-0.07,9.5,7.35,17.22,16.8,17.46c9.29,0.24,17.24-7.46,17.41-16.85c0.17-9.74-7.44-17.64-17.04-17.68
		C145.41,459.7,137.71,467.36,137.63,476.81z M155.29,25.43c-11.62,0-23.23,0.03-34.85-0.02c-3.06-0.01-6.05,0.33-6.1,4.11
		c-0.06,3.85,2.98,4.16,6.01,4.16c22.9-0.02,45.8-0.02,68.71,0c3,0,6.09-0.21,6.11-4.07c0.02-3.77-2.92-4.21-6.01-4.2
		C177.86,25.46,166.57,25.43,155.29,25.43z"/>
	<path class="st0" d="M278.98,55.72c0,130.48,0,260.81,0,391.53c-82.78,0-165.49,0-248.48,0c0-130.46,0-260.79,0-391.53
		C113.29,55.72,195.99,55.72,278.98,55.72z"/>
	<path class="st0" d="M137.63,476.81c0.07-9.45,7.78-17.11,17.17-17.07c9.6,0.04,17.22,7.94,17.04,17.68
		c-0.17,9.39-8.11,17.09-17.41,16.85C144.99,494.03,137.56,486.31,137.63,476.81z"/>
	<path class="st0" d="M155.29,25.43c11.29,0,22.57,0.03,33.86-0.02c3.09-0.01,6.03,0.43,6.01,4.2c-0.02,3.85-3.1,4.07-6.11,4.07
		c-22.9-0.02-45.8-0.02-68.71,0c-3.03,0-6.07-0.3-6.01-4.16c0.06-3.78,3.04-4.12,6.1-4.11C132.05,25.46,143.67,25.43,155.29,25.43z"
		/>
</g>
</svg>
